<?xml version="1.0" encoding="utf-8"?><svg width="1371" height="810" viewBox="0 0 1371 810" xmlns="http://www.w3.org/2000/svg" xmlns:xlink="http://www.w3.org/1999/xlink"><svg viewBox="-1 -1 275.54 181.94" width="275.54" height="181.94" id="1c" y="561.4" xmlns="http://www.w3.org/2000/svg"><defs><style>.acls-1{fill:#fff;fill-rule:evenodd}.acls-2{filter:url(#a_1c)}</style><filter id="a_1c" x="0" y="0" width="273.543" height="179.941" filterUnits="userSpaceOnUse"><feOffset dx="2" dy="2"/><feGaussianBlur stdDeviation="3" result="blur"/><feFlood flood-opacity=".2"/><feComposite operator="in" in2="blur"/><feComposite in="SourceGraphic"/></filter></defs><g class="acls-2"><path id="a_1c-2" data-name="1c" class="acls-1" d="M73.413 0H21.7v21.536h30.2l.2 140.405h21.313V0zm100.473 125.611l-2.37-.08-2.322-.176-2.29-.272-2.258-.4-2.21-.512-2.162-.624-2.13-.721-2.065-.785-2.017-.929-1.969-1.009-1.905-1.089-1.841-1.185-1.793-1.265-1.7-1.345-1.665-1.425-1.585-1.521-1.504-1.573-1.425-1.665-1.345-1.729-1.265-1.761-1.185-1.857-1.121-1.905-.993-1.953-.913-2.017-.817-2.1-.7-2.1-.608-2.162-.5-2.21-.416-2.258-.3-2.306-.16-2.322-.064-2.354.048-2.338.16-2.322.24-2.274.384-2.258.48-2.21.592-2.178.7-2.146.8-2.1.881-2.049.977-1.969 1.073-1.937 1.185-1.889 1.249-1.825 1.313-1.745 1.425-1.681 1.473-1.617 1.569-1.553 1.665-1.457 1.7-1.393 1.777-1.3 1.841-1.233 1.905-1.121 1.985-1.041 2.017-.929 2.1-.849 2.114-.753 2.178-.608 2.226-.512 2.274-.432 2.322-.3 2.37-.176 2.386-.064 2.322.064 2.29.176 2.274.32 2.226.416 2.21.544 2.178.656 2.113.753 2.1.865 2.049.977 1.969 1.073 1.937 1.153 1.889 1.281 1.825 1.345 1.745 1.457 1.681 1.521 1.633 1.617 1.553 1.681 1.457 1.777 1.393 1.841 1.313 1.905 1.233 2 1.121 2.049 1.041 2.114.961 2.178.849 2.226.753 2.29.64 2.322.528 2.386.4 2.45.32 2.482.176 2.5.048 2.562h-21.413l-.016-1.425-.064-1.393-.144-1.393-.208-1.345-.224-1.345-.288-1.3-.352-1.281L196.83 72l-.432-1.233-.5-1.185-.528-1.137-.592-1.121-.64-1.089-.689-1.025-.721-1.009-.752-.961-.817-.913-.865-.865-.913-.8-.929-.769-.977-.7-1.041-.656-1.073-.608-1.089-.544-1.153-.5-1.185-.432-1.233-.368-1.249-.3-1.313-.24-1.313-.176-1.393-.1-1.409-.048-1.409.048-1.361.1-1.345.176-1.3.24-1.265.3-1.233.368-1.185.432-1.137.5-1.121.544-1.073.608-1.025.656-1.009.7-.929.769-.913.8-.849.865-.817.913-.769.961-.721 1.009-.688 1.025-.608 1.089-.592 1.121-.544 1.137-.48 1.185-.438 1.233-.384 1.249-.336 1.281-.3 1.3-.224 1.345-.176 1.345-.144 1.393-.1 1.393-.016 1.425.048 1.137.1 1.121.176 1.1.224 1.073.32 1.073.336 1.009.432 1.025.48.977.528.961.576.929.64.913.688.865.721.849.753.8.817.785.849.721.865.721.913.656.945.64.977.592.993.544 1.025.5 1.041.48 1.073.416 1.073.384 1.121.32 1.121.3 1.121.224 1.137.176 1.137.128 1.153.064 1.137.032h81.481v21.359zm.192 33.736l-4.019-.08-3.971-.3-3.955-.448-3.859-.672-3.811-.817-3.731-1.009-3.683-1.185-3.587-1.329-3.507-1.489-3.426-1.665-3.33-1.761-3.234-1.953-3.106-2.1-2.994-2.242-2.882-2.37-2.77-2.5-2.642-2.626-2.53-2.77-2.37-2.882-2.226-2.978-2.1-3.122-1.937-3.2-1.761-3.314-1.617-3.41-1.425-3.491-1.249-3.6-1.089-3.7-.913-3.747-.7-3.875-.5-3.907-.32-3.987-.112-4.051.112-4.083.272-4.019.5-4 .656-3.955.833-3.907 1.025-3.843 1.2-3.779 1.361-3.731 1.521-3.619 1.681-3.539 1.857-3.459 2-3.362 2.162-3.25 2.29-3.138 2.434-3.042 2.594-2.914 2.706-2.77 2.85-2.658 2.978-2.5 3.09-2.37 3.2-2.21 3.314-2.049 3.458-1.889 3.523-1.7 3.667-1.521 3.75-1.36 3.844-1.154 3.939-.961 4-.753 4.115-.576 4.179-.32 4.243-.112 4.275.1 4.179.32 4.083.528 4.019.737 3.923.913 3.875 1.1 3.747 1.3 3.635 1.473 3.571 1.633 3.426 1.825 3.346 1.985 3.2 2.13 3.106 2.29 2.978 2.45 2.85 2.562 2.722 2.722 2.594 2.866 2.45 2.994 2.29 3.106 2.178 3.234 2 3.346 1.857 3.475 1.713 3.555 1.521 3.667 1.393 3.747 1.185 3.843 1.041 3.939.849 4 .657 4.067.5 4.163.272 4.211.112 4.275h-21.311l-.112-2.946-.192-2.914-.352-2.914-.464-2.882-.576-2.85-.7-2.818-.8-2.77-.929-2.722-1.041-2.658-1.153-2.642-1.249-2.546-1.377-2.5-1.505-2.4-1.585-2.338-1.7-2.274-1.793-2.178-1.921-2.065-2.033-1.969-2.118-1.894-2.226-1.777-2.338-1.665-2.482-1.6-2.53-1.409-2.626-1.3-2.721-1.149-2.818-.993-2.9-.881-3.026-.7-3.106-.576-3.186-.4-3.3-.224-3.378-.064-3.378.064-3.314.272-3.2.432-3.106.592-3.026.753-2.93.913-2.834 1.041-2.722 1.185-2.642 1.313-2.546 1.457-2.434 1.569-2.343 1.679-2.226 1.793-2.114 1.905-2.049 2-1.937 2.1-1.793 2.178-1.7 2.274-1.581 2.368-1.457 2.434-1.393 2.482-1.25 2.546-1.137 2.61-1.025 2.658-.913 2.706-.769 2.722-.672 2.77-.544 2.8-.432 2.818-.32 2.834-.176 2.85-.064 2.866.1 2.578.208 2.562.368 2.562.48 2.53.608 2.546.753 2.5.881 2.482.993 2.434 1.121 2.386 1.249 2.354 1.361 2.306 1.457 2.258 1.585 2.178 1.681 2.146 1.793 2.049 1.889 1.969 1.969 1.905 2.1 1.809 2.178 1.713 2.242 1.649 2.338 1.521 2.434 1.409 2.514 1.313 2.594 1.185 2.658 1.089 2.722.929 2.818.817 2.866.689 2.93.528 2.994.384 3.042.256 3.09.064h81.481v21.5zM42.623 33.368H0v21.52h21.52v107.021h21.311l-.208-128.541z" transform="translate(7 7)"/></g></svg><svg viewBox="-1 -1 1370.17 561.4" width="1370.17" height="561.4" id="1c--l" xmlns="http://www.w3.org/2000/svg"><defs><style>.bcls-1{fill:#f6f7f8;fill-rule:evenodd;opacity:.5}</style></defs><path id="b_1c--l" data-name="1c--l" class="bcls-1" d="M253.594 0H74.944v74.391h104.314l.719 485.01h73.617V0zM1255.8 433.9H600.662l-8.186-.277-8.02-.608-7.909-.94-7.8-1.383-7.633-1.77-7.467-2.157-7.356-2.489-7.135-2.71-6.969-3.208-6.8-3.484-6.582-3.761-6.361-4.093-6.195-4.369-5.863-4.646-5.752-4.923-5.476-5.254-5.2-5.42-4.923-5.752-4.646-5.974-4.369-6.082-4.093-6.416-3.872-6.582-3.429-6.748-3.153-6.969-2.821-7.246-2.434-7.246-2.1-7.467-1.718-7.626-1.438-7.8-1.051-7.965-.553-8.02-.221-8.13.166-8.075.553-8.02.83-7.854 1.328-7.8 1.661-7.636 2.047-7.522 2.434-7.412 2.765-7.246 3.042-7.08 3.374-6.8 3.706-6.692 4.093-6.527 4.314-6.305 4.535-6.029 4.923-5.807 5.092-5.587 5.42-5.365 5.752-5.033 5.863-4.812 6.14-4.48 6.36-4.259 6.582-3.872 6.858-3.6 6.969-3.208 7.246-2.931 7.3-2.6 7.522-2.1 7.688-1.77 7.854-1.493 8.02-1.051 8.186-.608 8.241-.221 8.02.221 7.909.608 7.854 1.106 7.688 1.438 7.633 1.881 7.522 2.268 7.3 2.6 7.246 2.987 7.08 3.374 6.8 3.706 6.692 3.982 6.527 4.425 6.305 4.646 6.029 5.033 5.808 5.254 5.642 5.586 5.365 5.807 5.033 6.139 4.812 6.361 4.534 6.588 4.259 6.914 3.872 7.08 3.6 7.3 3.318 7.522 2.931 7.688 2.6 7.909 2.212 8.02 1.825 8.241 1.383 8.462 1.106 8.573.608 8.628.166 8.85h-73.952l-.055-4.923-.221-4.812-.5-4.812-.719-4.646-.774-4.646-1-4.48-1.217-4.425-1.327-4.314-1.493-4.259-1.715-4.093-1.825-3.927-2.046-3.872-2.213-3.761-2.378-3.54-2.489-3.484-2.6-3.319-2.821-3.153-2.987-2.987-3.153-2.765-3.208-2.655-3.374-2.434-3.6-2.268-3.706-2.1-3.761-1.881-3.982-1.715-4.093-1.493-4.259-1.272-4.314-1.051-4.535-.83-4.535-.608-4.812-.332-4.867-.166-4.867.166-4.7.332-4.646.608-4.48.83-4.356 1.05-4.259 1.272-4.093 1.493-3.927 1.715-3.872 1.881-3.706 2.1-3.54 2.268-3.485 2.434-3.208 2.655-3.153 2.765-2.931 2.987-2.821 3.153-2.655 3.319-2.489 3.484-2.378 3.54-2.1 3.761-2.047 3.872-1.88 3.927-1.659 4.093-1.549 4.259-1.327 4.314-1.162 4.425-1.051 4.48-.774 4.646-.608 4.646-.5 4.812-.332 4.812-.055 4.923.166 3.927.332 3.872.608 3.816.774 3.706 1.106 3.706 1.161 3.485 1.493 3.54 1.659 3.374 1.825 3.319 1.991 3.208 2.212 3.153 2.378 2.987 2.489 2.931 2.6 2.765 2.821 2.71 2.931 2.489 2.987 2.489 3.153 2.268 3.263 2.212 3.374 2.046 3.429 1.881 3.54 1.715 3.6 1.659 3.706 1.438 3.706 1.327 3.872 1.106 3.872 1.051 3.872.774 3.927.608 3.927.442 3.982.221 3.927.111 766.9-.885v73.783zm0 116.537H601.325l-13.883-.276-13.717-1.051-13.661-1.549-13.33-2.323-13.164-2.821-12.887-3.484-12.721-4.093-12.389-4.591-12.113-5.144-11.836-5.752-11.5-6.084-11.172-6.748-10.73-7.246-10.343-7.743-9.956-8.186-9.569-8.628-9.126-9.071-8.739-9.569-8.186-9.956-7.688-10.288-7.246-10.785-6.692-11.062-6.084-11.449L349 390.762l-4.919-12.062-4.314-12.445-3.761-12.777-3.153-12.942-2.434-13.385-1.715-13.5-1.104-13.762-.387-13.993.387-14.1.94-13.883 1.715-13.827 2.268-13.661 2.876-13.5 3.54-13.274 4.148-13.053 4.7-12.887 5.254-12.5 5.808-12.223 6.416-11.947 6.914-11.615 7.467-11.228 7.909-10.841 8.407-10.509 8.96-10.066 9.347-9.569 9.845-9.181L434.4 59.4l10.675-8.186 11.062-7.633 11.449-7.08 11.947-6.527 12.167-5.859 12.666-5.254 12.942-4.7 13.274-3.982 13.606-3.319 13.827-2.6 14.215-1.991 14.436-1.106 14.659-.389 14.768.332 14.436 1.106 14.1 1.825 13.883 2.544 13.551 3.153 13.385 3.816 12.942 4.48 12.555 5.088 12.334 5.642 11.836 6.305 11.56 6.858 11.062 7.356 10.73 7.909 10.288 8.462 9.845 8.85 9.4 9.4 8.96 9.9 8.463 10.343 7.909 10.73 7.522 11.173 6.914 11.56 6.416 12 5.918 12.279 5.254 12.666 4.812 12.942 4.093 13.274 3.595 13.606 2.931 13.827 2.268 14.049 1.715 14.38.94 14.546.387 14.768h-73.611l-.387-10.177-.664-10.066-1.217-10.066-1.6-9.956-1.991-9.845-2.434-9.734-2.766-9.569-3.208-9.4-3.6-9.181-3.982-9.126-4.314-8.794-4.757-8.628-5.2-8.3-5.476-8.075-5.863-7.854-6.195-7.522-6.637-7.135-7.024-6.8-7.3-6.527-7.688-6.139-8.073-5.749-8.573-5.531L694.8 96.9l-9.071-4.48-9.4-3.982-9.735-3.429-10.014-3.04-10.454-2.434-10.726-1.991-11.007-1.383L613 75.387l-11.67-.221-11.67.221-11.449.94-11.062 1.493-10.73 2.046-10.453 2.6-10.122 3.153-9.79 3.6-9.4 4.093-9.126 4.535-8.794 5.033-8.407 5.42-8.075 5.808-7.688 6.195-7.3 6.582-7.08 6.914-6.693 7.246-6.195 7.522-5.863 7.854-5.483 8.179-5.033 8.407-4.812 8.573-4.314 8.794-3.927 9.015-3.54 9.181-3.153 9.347-2.655 9.4-2.323 9.569-1.881 9.679-1.493 9.734-1.106 9.79-.608 9.845-.221 9.9.332 8.9.719 8.85 1.272 8.85 1.659 8.739 2.1 8.794 2.6 8.628 3.042 8.573 3.429 8.407 3.872 8.241 4.314 8.131 4.7 7.965 5.033 7.8 5.476 7.522 5.807 7.412 6.195 7.08 6.527 6.8 6.8 6.582 7.245 6.25 7.522 5.918 7.743 5.7 8.075 5.254 8.407 4.867 8.684 4.535 8.96 4.093 9.181 3.761 9.4 3.208 9.734 2.821 9.9 2.378 10.122 1.825 10.343 1.327 10.509.885 10.675.221 766.9-.885v74.281zM147.234 115.265H0V189.6h74.336v369.691h73.617l-.719-444.026z"/></svg><svg data-name="Layer 1" viewBox="-1 -1 27.64 16.26" width="27.64" height="16.26" id="arw" x="371.76" y="561.4" xmlns="http://www.w3.org/2000/svg"><title>arw</title><path d="M.292 1.707A1 1 0 0 1 .294.292a1 1 0 0 1 1.414.002L12.821 11.43 23.934.294A1 1 0 0 1 25.35.292a1 1 0 0 1 .001 1.415L12.821 14.262z" fill="#fff"/></svg><svg data-name="Layer 1" viewBox="-1 -1 30.22 30" width="30.22" height="30" id="check" x="341.54" y="561.4" xmlns="http://www.w3.org/2000/svg"><title>check</title><path d="M25.267 9.862a12.004 12.004 0 1 1-11.55-7.859 11.889 11.889 0 0 1 7.62 2.5c.112.088.21.187.318.277l1.253-1.557c-.119-.098-.225-.206-.347-.301a14.038 14.038 0 1 0 4.128 5.172z" fill="#f3f2f2"/><path d="M13.206 21.658l-7.11-7.745a1 1 0 0 1 .06-1.413 1 1 0 0 1 1.413.06l5.537 6.032L26.438 2.027a1 1 0 0 1 1.406-.152 1 1 0 0 1 .152 1.406z" fill="#00c2d8"/></svg><svg id="ft-1" data-name="Group 49" viewBox="-1 -1 66 57.5" width="66" height="57.5" x="275.54" y="561.4" xmlns="http://www.w3.org/2000/svg"><defs><style>.ecls-1{fill:#282d33}.ecls-2{fill:#00c2d8}</style></defs><g id="eGroup_41" data-name="Group 41" transform="translate(7.225)"><path id="ePath_34" data-name="Path 34" class="ecls-1" d="M66.541 52.428l-15.984-4.284a31.128 31.128 0 0 1-10.869 1.918c-15.664 0-28.388-11.253-28.388-25C11.236 11.253 23.959 0 39.687 0c15.665 0 28.388 11.253 28.388 25a22.6 22.6 0 0 1-5.051 14.258zm-16.112-6.969L62.9 48.783l-2.685-10.1.448-.511A20.411 20.411 0 0 0 65.582 25C65.518 12.659 53.945 2.557 39.687 2.557S13.793 12.659 13.793 25c0 12.4 11.572 22.442 25.83 22.442a29.709 29.709 0 0 0 10.358-1.854z" transform="translate(-11.3)"/></g><path id="ePath_35" data-name="Path 35" class="ecls-2" d="M15.536 43.9C6.969 43.9 0 49.974 0 57.454a12.194 12.194 0 0 0 2.494 7.417L.767 71.329l7.289-1.982a17.542 17.542 0 0 0 7.417 1.662c8.567 0 15.536-6.074 15.536-13.554S24.1 43.9 15.536 43.9z" transform="translate(0 -15.832)"/><g id="eGroup_42" data-name="Group 42" transform="translate(24.761 15.723)"><path id="eRectangle_50" data-name="Rectangle 50" class="ecls-1" d="M0 0h4.667v2.557H0z"/></g><g id="eGroup_46" data-name="Group 46" transform="translate(7.8 40.408)"><g id="eGroup_43" data-name="Group 43"><path id="eRectangle_51" data-name="Rectangle 51" class="ecls-1" d="M0 0h2.941v2.557H0z"/></g><g id="eGroup_44" data-name="Group 44" transform="translate(6.266)"><path id="eRectangle_52" data-name="Rectangle 52" class="ecls-1" d="M0 0h2.941v2.557H0z"/></g><g id="eGroup_45" data-name="Group 45" transform="translate(12.531)"><path id="eRectangle_53" data-name="Rectangle 53" class="ecls-1" d="M0 0h2.941v2.557H0z"/></g></g><g id="eGroup_47" data-name="Group 47" transform="translate(42.024 15.723)"><path id="eRectangle_54" data-name="Rectangle 54" class="ecls-1" d="M0 0h4.667v2.557H0z"/></g><g id="eGroup_48" data-name="Group 48" transform="translate(25.465 21.989)"><path id="ePath_36" data-name="Path 36" class="ecls-1" d="M47.122 42.168c-5.562 0-10.1-4.923-10.358-11.125L36.7 29.7h20.843l-.064 1.343c-.256 6.201-4.795 11.125-10.357 11.125zm-7.672-9.91c.7 4.22 3.9 7.353 7.672 7.353s6.969-3.133 7.672-7.353z" transform="translate(-36.7 -29.7)"/></g></svg><svg id="ft-2" data-name="Group 52" viewBox="-1 -1 66 59.03" width="66" height="59.03" x="275.54" y="618.9" xmlns="http://www.w3.org/2000/svg"><defs><style>.fcls-1{fill:#282d33}.fcls-2{fill:#00c2d8}</style></defs><g id="fGroup_50" data-name="Group 50" transform="translate(19.755)"><path id="fPath_37" data-name="Path 37" class="fcls-1" d="M57.276 53.446H41.513a10.575 10.575 0 0 1-8.186-3.789H29.2v-2.706h5.412l.406.541a7.948 7.948 0 0 0 6.427 3.247h19.484a2.909 2.909 0 1 0 0-5.818v-2.705h3.383a2.909 2.909 0 0 0 0-5.818v-2.707H65.6a2.909 2.909 0 1 0 0-5.818v-2.706h2.3a2.909 2.909 0 0 0 0-5.818H55.923a1.151 1.151 0 0 0-.474.068h-6.765l1.962-6.833V6.7a3.956 3.956 0 0 0-3.992-3.992h-.677v7.237l-2.436 3.383-7.848 8.524a7.846 7.846 0 0 0-2.03 3.653l-.271 1.015H29.2v-2.706h2.165a10.456 10.456 0 0 1 2.368-3.856l7.712-8.389 1.759-2.5v-9L44.49 0h2.03a6.67 6.67 0 0 1 6.7 6.7v6.224l-1.086 3.786h2.909a3.294 3.294 0 0 1 .812-.068H67.83A5.609 5.609 0 0 1 70.063 27.4a5.816 5.816 0 0 1 1.15 3.383 5.565 5.565 0 0 1-2.638 4.736 5.433 5.433 0 0 1 1.488 3.789 5.65 5.65 0 0 1-4.33 5.48 5.34 5.34 0 0 1 .879 3.044A5.6 5.6 0 0 1 61 53.446z" transform="translate(-29.2)"/></g><path id="fRectangle_55" data-name="Rectangle 55" class="fcls-2" transform="translate(0 23.476)" d="M0 0h17.793v33.556H0z"/><g id="fGroup_51" data-name="Group 51" transform="translate(11.704 51.214)"><path id="fRectangle_56" data-name="Rectangle 56" d="M0 0h2.233v2.03H0z"/></g></svg><svg id="ft-3" data-name="Group 66" viewBox="-1 -1 47.56 66" width="47.56" height="66" y="743.3399999999999" xmlns="http://www.w3.org/2000/svg"><defs><style>.gcls-1{fill:#282d33}.gcls-2{fill:#00c2d8}.gcls-3{fill:#fff}</style></defs><g id="gGroup_54" data-name="Group 54" transform="translate(5.75)"><g id="gGroup_53" data-name="Group 53"><path id="gPath_38" data-name="Path 38" class="gcls-1" d="M43.263 47h-2.5V14.875A12.417 12.417 0 0 0 28.325 2.5h-4.25A12.4 12.4 0 0 0 11.7 14.875V24.5H9.2v-9.562A14.977 14.977 0 0 1 24.138 0h4.25a14.911 14.911 0 0 1 14.875 14.875z" transform="translate(-9.2)"/></g></g><g id="gGroup_55" data-name="Group 55" transform="translate(.625 22.75)"><path id="gRectangle_57" data-name="Rectangle 57" class="gcls-2" transform="translate(1.25 1.187)" d="M0 0h41.813v38.75H0z"/><path id="gPath_39" data-name="Path 39" class="gcls-1" d="M45.313 77.65H1V36.4h44.313zM3.5 75.15h39.313V38.9H3.5z" transform="translate(-1 -36.4)"/></g><g id="gGroup_56" data-name="Group 56" transform="translate(17.688 32.875)"><path id="gPath_40" data-name="Path 40" class="gcls-3" d="M37.95 58.375a3.875 3.875 0 1 0-5.875 3.312l-.875 9.5h5.75l-.875-9.5a3.912 3.912 0 0 0 1.875-3.312z" transform="translate(-29.012 -53.312)"/><path id="gPath_41" data-name="Path 41" class="gcls-1" d="M37.613 71.725h-8.438l.937-10.125a5.087 5.087 0 0 1-1.812-3.875 5.125 5.125 0 1 1 10.25 0 4.991 4.991 0 0 1-1.813 3.875zm-5.688-2.5h2.937l-.812-8.938.688-.375a2.566 2.566 0 0 0 1.25-2.25 2.625 2.625 0 0 0-5.25 0 2.707 2.707 0 0 0 1.25 2.25l.688.375z" transform="translate(-28.3 -52.6)"/></g><g id="gGroup_65" data-name="Group 65" transform="translate(0 32.938)"><g id="gGroup_60" data-name="Group 60"><g id="gGroup_57" data-name="Group 57"><path id="gPath_42" data-name="Path 42" class="gcls-3" d="M0 54.7z" transform="translate(0 -53.45)"/><path id="gRectangle_58" data-name="Rectangle 58" class="gcls-1" d="M0 0h8.125v2.5H0z"/></g><g id="gGroup_58" data-name="Group 58" transform="translate(0 7.875)"><path id="gPath_43" data-name="Path 43" class="gcls-3" d="M0 67.3z" transform="translate(0 -66.05)"/><path id="gRectangle_59" data-name="Rectangle 59" class="gcls-1" d="M0 0h8.125v2.5H0z"/></g><g id="gGroup_59" data-name="Group 59" transform="translate(0 15.813)"><path id="gPath_44" data-name="Path 44" class="gcls-3" d="M0 80z" transform="translate(0 -78.75)"/><path id="gRectangle_60" data-name="Rectangle 60" class="gcls-1" d="M0 0h8.125v2.5H0z"/></g></g><g id="gGroup_64" data-name="Group 64" transform="translate(37.438)"><g id="gGroup_61" data-name="Group 61"><path id="gPath_45" data-name="Path 45" class="gcls-3" d="M59.9 54.7z" transform="translate(-59.9 -53.45)"/><path id="gRectangle_61" data-name="Rectangle 61" class="gcls-1" d="M0 0h8.125v2.5H0z"/></g><g id="gGroup_62" data-name="Group 62" transform="translate(0 7.875)"><path id="gPath_46" data-name="Path 46" class="gcls-3" d="M59.9 67.3z" transform="translate(-59.9 -66.05)"/><path id="gRectangle_62" data-name="Rectangle 62" class="gcls-1" d="M0 0h8.125v2.5H0z"/></g><g id="gGroup_63" data-name="Group 63" transform="translate(0 15.813)"><path id="gPath_47" data-name="Path 47" class="gcls-3" d="M59.9 80z" transform="translate(-59.9 -78.75)"/><path id="gRectangle_63" data-name="Rectangle 63" class="gcls-1" d="M0 0h8.125v2.5H0z"/></g></g></g></svg><svg viewBox="-1 -1 66 62.1" width="66" height="62.1" id="ft-4" x="275.54" y="677.93" xmlns="http://www.w3.org/2000/svg"><defs><style>.hcls-1{fill:#fff}.hcls-2{fill:#282d33}.hcls-3{fill:#00c2d8}.hcls-4{fill:none;stroke:#000;stroke-width:2px}</style></defs><g id="hft-4" transform="translate(0 1)"><g id="hGroup_76" data-name="Group 76" transform="translate(0 13.182)"><g id="hGroup_74" data-name="Group 74" transform="translate(5.286 4.521)"><path id="hPath_54" data-name="Path 54" class="hcls-1" d="M18.606 45.593L15.8 42.6v-8.533c-.382-2.165-1.91-4.267-4.076-4.267H10.2l.191 15.411 2.1 3.566a10.406 10.406 0 0 0 6.115-3.184z" transform="translate(-8.99 -28.526)"/><path id="hPath_55" data-name="Path 55" class="hcls-2" d="M11.166 49.452l-2.739-4.585-.127-17 1.21-.067h1.59c2.929 0 4.9 2.675 5.349 5.349v8.279l3.311 3.5-.892.828a12.272 12.272 0 0 1-6.814 3.566zm-.191-5.286l1.465 2.484a9.363 9.363 0 0 0 3.63-1.847l-2.229-2.42v-8.915c-.255-1.528-1.337-3.12-2.8-3.12h-.191z" transform="translate(-8.3 -27.8)"/></g><g id="hGroup_75" data-name="Group 75"><path id="hPath_56" data-name="Path 56" class="hcls-1" d="M13.845 57.625L2.191 38.075 2 22.6h1.528c2.165 0 3.757 2.1 4.076 4.267v8.6l3.184 3.375 9.17 9.17.828-.828-5.668-5.668c-1.4-1.528-.955-4.267.573-5.668l.382-.318L26.2 45.653l.446 7.387v11.526z" transform="translate(-.726 -21.39)"/><path id="hPath_57" data-name="Path 57" class="hcls-2" d="M27.192 63.812h-2.547V52.35l-.445-6.878-8.853-8.852a4.019 4.019 0 0 0-.509 1.465 2.449 2.449 0 0 0 .446 1.847l6.559 6.559-2.611 2.675L9.17 39.04 5.6 35.283V26.3c-.255-1.528-1.337-3.12-2.8-3.12h-.253L2.675 37l11.462 19.3-2.165 1.274L.191 37.7 0 20.764l1.21-.064H2.8c2.929 0 4.9 2.675 5.349 5.349v8.215l2.866 2.993 1.274 1.274a3.1 3.1 0 0 1 .064-.764 5.983 5.983 0 0 1 1.784-3.567l.064-.064 1.274-1.083 11.271 11.273.509 7.9v11.59z" transform="translate(0 -20.7)"/></g><path id="hRectangle_64" data-name="Rectangle 64" class="hcls-3" transform="translate(9.68 38.782)" d="M0 0h20.378v7.132H0z"/></g><g id="hGroup_79" data-name="Group 79" transform="translate(33.942 13.182)"><g id="hGroup_77" data-name="Group 77" transform="translate(13.373 4.458)"><path id="hPath_58" data-name="Path 58" class="hcls-1" d="M77.1 45.593l2.8-2.993v-8.533c.382-2.165 1.91-4.267 4.076-4.267h1.528l-.191 15.411-2.1 3.566a10.787 10.787 0 0 1-6.113-3.184z" transform="translate(-75.317 -28.463)"/><path id="hPath_59" data-name="Path 59" class="hcls-2" d="M82.833 49.415l-.828-.127a11.514 11.514 0 0 1-6.814-3.566l-.891-.892 3.311-3.5v-8.281c.446-2.675 2.42-5.349 5.349-5.349h1.592l1.146.127v1.21l-.126 15.793zm-4.9-4.649a9.363 9.363 0 0 0 3.63 1.847l1.465-2.484.127-13.819h-.127c-1.465 0-2.547 1.592-2.8 3.12v8.98z" transform="translate(-74.3 -27.7)"/></g><g id="hGroup_78" data-name="Group 78" transform="translate(2.866)"><path id="hPath_60" data-name="Path 60" class="hcls-1" d="M72.7 57.661l11.654-19.55.191-15.411h-1.529c-2.165 0-3.757 2.1-4.076 4.267v8.6l-3.184 3.375-9.17 9.106-.828-.828 5.668-5.668c1.4-1.528.955-4.267-.573-5.668l-.382-.318-10.125 10.123-.446 7.387V64.6z" transform="translate(-58.563 -21.426)"/><path id="hPath_61" data-name="Path 61" class="hcls-2" d="M60.347 63.812H57.8v-11.59l.509-7.833 11.272-11.271 1.337 1.146A6.167 6.167 0 0 1 72.7 37.83c0 .255.064.509.064.764l1.274-1.274 2.8-2.993v-8.278c.446-2.675 2.42-5.349 5.349-5.349h1.528l1.21.127.064 1.21L84.8 37.83 73.02 57.572 70.855 56.3 82.317 37l.127-13.819h-.191c-1.465 0-2.547 1.592-2.8 3.12v8.979l-3.567 3.76L65.824 49.1l-2.611-2.675 6.623-6.559a2.375 2.375 0 0 0 .446-1.847 4.019 4.019 0 0 0-.509-1.465l-8.979 8.915-.446 6.878z" transform="translate(-57.8 -20.7)"/></g><path id="hRectangle_65" data-name="Rectangle 65" class="hcls-3" transform="translate(0 38.782)" d="M0 0h20.378v7.132H0z"/></g><path id="hPath_62" data-name="Path 62" class="hcls-4" d="M42.982 26.364a13.182 13.182 0 1 1 13.182-13.182 13.168 13.168 0 0 1-13.182 13.182z" transform="translate(-10.823)"/><g id="hGroup_84" data-name="Group 84" transform="translate(27.638 3.885)"><g id="hGroup_80" data-name="Group 80" transform="translate(.127 1.783)"><path id="hPath_63" data-name="Path 63" class="hcls-2" d="M49.14 18.325l-3.693-1.465a3.367 3.367 0 0 1-1.847-2.865v-1.529A3.56 3.56 0 0 1 47.166 8.9h1.847a3.56 3.56 0 0 1 3.566 3.566v.7h-2.547v-.7a1.006 1.006 0 0 0-1.019-1.019h-1.847a1.006 1.006 0 0 0-1.019 1.019v1.592c0 .064.127.318.573.637l3.311 1.274z" transform="translate(-43.6 -8.9)"/></g><g id="hGroup_81" data-name="Group 81" transform="translate(0 7.705)"><path id="hPath_64" data-name="Path 64" class="hcls-2" d="M48.813 27.561h-1.847A3.56 3.56 0 0 1 43.4 24v-.7h2.547v.7a1.006 1.006 0 0 0 1.019 1.019h1.847A1.006 1.006 0 0 0 49.832 24v-1.533c0-.064-.127-.318-.637-.7l-3.184-1.21.889-2.357 3.5 1.4a3.4 3.4 0 0 1 1.91 2.866V24a3.467 3.467 0 0 1-3.497 3.561z" transform="translate(-43.4 -18.2)"/></g><g id="hGroup_82" data-name="Group 82" transform="translate(3.375)"><path id="hPath_65" data-name="Path 65" class="hcls-1" d="M50.7 6.1z" transform="translate(-49.426 -6.1)"/><path id="hRectangle_66" data-name="Rectangle 66" class="hcls-2" d="M0 0h2.547v3.375H0z"/></g><g id="hGroup_83" data-name="Group 83" transform="translate(3.375 15.22)"><path id="hPath_66" data-name="Path 66" class="hcls-1" d="M50.7 30z" transform="translate(-49.426 -30)"/><path id="hRectangle_67" data-name="Rectangle 67" class="hcls-2" d="M0 0h2.547v3.375H0z"/></g></g></g></svg><svg viewBox="-1 -1 53.79 66" width="53.79" height="66" id="ft-5" x="47.56" y="743.3399999999999" xmlns="http://www.w3.org/2000/svg"><defs><style>.icls-1{fill:#fff}.icls-2{fill:#282d33}.icls-3{fill:#00c2d8}</style></defs><g id="ift-5" transform="translate(0 -.1)"><g id="iGroup_114" data-name="Group 114" transform="translate(0 .1)"><g id="iGroup_86" data-name="Group 86" transform="translate(0 12.272)"><path id="iPath_67" data-name="Path 67" class="icls-1" d="M51.335 46.667A24.667 24.667 0 1 1 26.667 22a24.669 24.669 0 0 1 24.668 24.667z" transform="translate(-.773 -20.834)"/><path id="iPath_68" data-name="Path 68" class="icls-2" d="M25.895 71.828a25.864 25.864 0 1 1 25.894-25.833 25.9 25.9 0 0 1-25.894 25.833zm0-49.273a23.409 23.409 0 1 0 23.44 23.379 23.425 23.425 0 0 0-23.44-23.38z" transform="translate(0 -20.1)"/></g><g id="iGroup_88" data-name="Group 88" transform="translate(19.697)"><g id="iGroup_87" data-name="Group 87"><path id="iPath_69" data-name="Path 69" class="icls-1" d="M44.041 8.175A1.034 1.034 0 0 1 43 9.218h-7.857A1.034 1.034 0 0 1 34.1 8.175V3.143A1.034 1.034 0 0 1 35.143 2.1h7.793a1.034 1.034 0 0 1 1.043 1.043z" transform="translate(-32.873 -.873)"/><path id="iPath_70" data-name="Path 70" class="icls-2" d="M42.163 9.672H34.37A2.305 2.305 0 0 1 32.1 7.4V2.37A2.265 2.265 0 0 1 34.37.1h7.793a2.485 2.485 0 0 1 1.657.675 2.228 2.228 0 0 1 .675 1.6V7.4a2.279 2.279 0 0 1-2.332 2.272zm-7.609-2.454h7.486V2.493h-7.486z" transform="translate(-32.1 -.1)"/></g></g><g id="iGroup_99" data-name="Group 99" transform="translate(5.317 8.863)"><g id="iGroup_93" data-name="Group 93"><g id="iGroup_92" data-name="Group 92"><g id="iGroup_91" data-name="Group 91"><g id="iGroup_90" data-name="Group 90"><g id="iGroup_89" data-name="Group 89"><path id="iPath_71" data-name="Path 71" class="icls-1" d="M12.514 22.932l-1.779-2.577a.676.676 0 0 1 .184-.92l3.988-2.7a.676.676 0 0 1 .92.184l1.78 2.581z" transform="translate(-9.425 -15.351)"/><path id="iPath_72" data-name="Path 72" class="icls-2" d="M10.773 22.8l-1.78-2.576a1.935 1.935 0 0 1-.307-1.411 2.064 2.064 0 0 1 .8-1.227l3.988-2.7a1.888 1.888 0 0 1 2.639.491l1.779 2.639-2.025 1.35-1.473-2.148-3.069 2.082 1.475 2.151z" transform="translate(-8.665 -14.545)"/></g></g></g></g></g><g id="iGroup_98" data-name="Group 98" transform="translate(31.929 .061)"><g id="iGroup_97" data-name="Group 97"><g id="iGroup_96" data-name="Group 96"><g id="iGroup_95" data-name="Group 95"><g id="iGroup_94" data-name="Group 94"><path id="iPath_73" data-name="Path 73" class="icls-1" d="M67.393 22.932l1.779-2.577a.676.676 0 0 0-.184-.92L65 16.735a.676.676 0 0 0-.92.184L62.3 19.5z" transform="translate(-61.318 -15.412)"/><path id="iPath_74" data-name="Path 74" class="icls-2" d="M67.818 22.84l-2.025-1.35 1.473-2.148-3.066-2.086-1.475 2.144-2.025-1.347 1.779-2.577a1.888 1.888 0 0 1 2.639-.491l3.988 2.7a2.064 2.064 0 0 1 .8 1.227 1.687 1.687 0 0 1-.307 1.411z" transform="translate(-60.7 -14.645)"/></g></g></g></g></g></g><path id="iPath_75" data-name="Path 75" class="icls-3" d="M50.244 48.622A21.722 21.722 0 1 1 28.522 26.9a21.723 21.723 0 0 1 21.722 21.722z" transform="translate(-2.627 -10.455)"/><path id="iPath_76" data-name="Path 76" class="icls-1" d="M47.631 53.065A14.665 14.665 0 1 1 32.965 38.4a14.665 14.665 0 0 1 14.666 14.665z" transform="translate(-7.071 -14.899)"/><g id="iGroup_112" data-name="Group 112" transform="translate(5.523 17.795)"><g id="iGroup_100" data-name="Group 100" transform="translate(18.961)"><path id="iPath_77" data-name="Path 77" class="icls-1" d="M41.9 29.1z" transform="translate(-40.673 -29.1)"/><path id="iRectangle_68" data-name="Rectangle 68" class="icls-2" d="M0 0h2.454v3.436H0z"/></g><g id="iGroup_121" data-name="Group 121" transform="translate(18.056 17.485)"><path id="iPath_77-2" data-name="Path 77" class="icls-1" d="M41.9 29.1z" transform="translate(-39.768 -29.1)"/><path id="iRectangle_68-2" data-name="Rectangle 68" class="icls-2" d="M0 0h4.264v4.467H0z"/></g><g id="iGroup_101" data-name="Group 101" transform="translate(8.937 2.204)"><path id="iPath_78" data-name="Path 78" class="icls-1" d="M25.3 33.7l1.718 2.945z" transform="translate(-24.235 -33.081)"/><path id="iRectangle_69" data-name="Rectangle 69" class="icls-2" transform="rotate(-29.993 2.29 .614)" d="M0 0h2.454v3.436H0z"/></g><g id="iGroup_102" data-name="Group 102" transform="translate(2.049 9.307)"><path id="iPath_79" data-name="Path 79" class="icls-1" d="M13.3 45.9l2.945 1.718z" transform="translate(-12.71 -44.898)"/><path id="iRectangle_70" data-name="Rectangle 70" class="icls-2" transform="rotate(-59.969 1.841 1.063)" d="M0 0h2.454v3.436H0z"/></g><g id="iGroup_103" data-name="Group 103" transform="translate(0 19.329)"><path id="iPath_80" data-name="Path 80" class="icls-1" d="M9 62.6z" transform="translate(-9 -61.373)"/><path id="iRectangle_71" data-name="Rectangle 71" class="icls-2" d="M0 0h3.436v2.454H0z"/></g><g id="iGroup_122" data-name="Group 122" transform="rotate(-43 33.714 -15.495)"><path id="iPath_80-2" data-name="Path 80" class="icls-1" d="M9 62.6z" transform="translate(-9 -61.373)"/><path id="iRectangle_71-2" data-name="Rectangle 71" class="icls-2" d="M0 0h11.274v2.454H0z"/></g><g id="iGroup_104" data-name="Group 104" transform="translate(2.248 27.886)"><path id="iPath_81" data-name="Path 81" class="icls-1" d="M13.6 78.018l2.945-1.718z" transform="translate(-13.025 -75.223)"/><path id="iRectangle_72" data-name="Rectangle 72" class="icls-2" transform="rotate(-29.993 3.207 .859)" d="M0 0h3.436v2.454H0z"/></g><g id="iGroup_105" data-name="Group 105" transform="translate(9.297 34.455)"><path id="iPath_82" data-name="Path 82" class="icls-1" d="M25.9 89.245l1.718-2.945z" transform="translate(-24.827 -85.656)"/><path id="iRectangle_73" data-name="Rectangle 73" class="icls-2" transform="rotate(-59.953 2.578 1.487)" d="M0 0h3.436v2.454H0z"/></g><g id="iGroup_106" data-name="Group 106" transform="translate(19.329 37.246)"><path id="iPath_83" data-name="Path 83" class="icls-1" d="M42.5 93.236z" transform="translate(-41.273 -89.8)"/><path id="iRectangle_74" data-name="Rectangle 74" class="icls-2" d="M0 0h2.454v3.436H0z"/></g><g id="iGroup_107" data-name="Group 107" transform="translate(27.905 34.297)"><path id="iPath_84" data-name="Path 84" class="icls-1" d="M57.918 88.945L56.2 86z" transform="translate(-55.143 -85.382)"/><path id="iRectangle_75" data-name="Rectangle 75" class="icls-2" transform="rotate(-29.955 2.291 .613)" d="M0 0h2.454v3.436H0z"/></g><g id="iGroup_108" data-name="Group 108" transform="translate(34.502 27.595)"><path id="iPath_85" data-name="Path 85" class="icls-1" d="M69.145 77.518L66.2 75.8z" transform="translate(-65.604 -74.739)"/><path id="iRectangle_76" data-name="Rectangle 76" class="icls-2" transform="matrix(.501 -.865 .865 .501 0 2.124)" d="M0 0h2.454v3.436H0z"/></g><g id="iGroup_109" data-name="Group 109" transform="translate(37.246 18.944)"><path id="iPath_86" data-name="Path 86" class="icls-1" d="M73.136 61.9z" transform="translate(-69.7 -60.717)"/><path id="iRectangle_77" data-name="Rectangle 77" class="icls-2" transform="rotate(-89.94 1.229 1.226)" d="M0 0h2.454v3.436H0z"/></g><g id="iGroup_110" data-name="Group 110" transform="translate(34.289 8.942)"><path id="iPath_87" data-name="Path 87" class="icls-1" d="M68.845 45.4L65.9 47.118z" transform="translate(-65.274 -44.34)"/><path id="iRectangle_78" data-name="Rectangle 78" class="icls-2" transform="rotate(-29.959 3.207 .858)" d="M0 0h3.436v2.454H0z"/></g><g id="iGroup_111" data-name="Group 111" transform="translate(27.587 2.001)"><path id="iPath_88" data-name="Path 88" class="icls-1" d="M57.418 33.4L55.7 36.345z" transform="translate(-54.631 -32.763)"/><path id="iRectangle_79" data-name="Rectangle 79" class="icls-2" transform="rotate(-59.953 2.578 1.487)" d="M0 0h3.436v2.454H0z"/></g></g><g id="iGroup_113" data-name="Group 113" transform="translate(24.667 8.222)"><path id="iRectangle_80" data-name="Rectangle 80" class="icls-2" d="M0 0h2.454v4.357H0z"/></g></g></g></svg><svg id="ft-6" viewBox="-1 -1 66 65.94" width="66" height="65.94" x="101.35" y="743.3399999999999" xmlns="http://www.w3.org/2000/svg"><defs><style>.jcls-1{fill:#282d33}.jcls-2{fill:#00c2d8}.jcls-3{fill:#fff}</style></defs><g id="jGroup_67" data-name="Group 67"><path id="jPath_48" data-name="Path 48" class="jcls-1" d="M32 63.937A31.968 31.968 0 1 1 64 32h-2.525A29.475 29.475 0 1 0 32 61.475z"/></g><g id="jGroup_71" data-name="Group 71" transform="translate(32 32)"><g id="jGroup_68" data-name="Group 68" transform="translate(29.412)"><path id="jPath_49" data-name="Path 49" class="jcls-1" d="M99.825 52.025L97.3 51.9v-1.2h2.525z" transform="translate(-97.3 -50.7)"/></g><g id="jGroup_69" data-name="Group 69" transform="translate(3.471 3.471)"><path id="jPath_50" data-name="Path 50" class="jcls-1" d="M56.516 84.476l-.316-2.525a14.227 14.227 0 0 0 2.272-.379l.5 2.462a24.683 24.683 0 0 1-2.456.442zm4.923-1.01l-.694-2.4c.757-.189 1.452-.442 2.209-.694l.884 2.4c-.821.189-1.579.505-2.399.694zm4.671-1.7l-1.01-2.339c.694-.316 1.389-.694 2.083-1.073l1.262 2.209c-.821.437-1.578.82-2.336 1.199zm4.417-2.466l-1.389-2.083c.631-.442 1.262-.884 1.893-1.389l1.578 1.957c-.756.569-1.387 1.015-2.082 1.515zm3.913-3.093l-1.7-1.83a20.133 20.133 0 0 0 1.641-1.641l1.83 1.7zm3.408-3.724l-1.957-1.578a20.847 20.847 0 0 0 1.389-1.893l2.084 1.388q-.758 1.137-1.515 2.084zm2.777-4.1l-2.209-1.262c.379-.694.757-1.389 1.073-2.083l2.272 1.073zm2.083-4.544l-2.4-.884A22.6 22.6 0 0 0 81 60.744l2.4.694a12.662 12.662 0 0 1-.691 2.399zm1.389-4.86l-2.462-.5.379-2.272 2.525.316c-.189.813-.315 1.634-.439 2.454z" transform="translate(-56.2 -56.2)"/></g><g id="jGroup_70" data-name="Group 70" transform="translate(0 29.412)"><path id="jPath_51" data-name="Path 51" class="jcls-1" d="M50.7 99.825V97.3h1.2l.126 2.525z" transform="translate(-50.7 -97.3)"/></g></g><circle id="jEllipse_4" data-name="Ellipse 4" class="jcls-2" cx="21.901" cy="21.901" r="21.901" transform="translate(9.957 10.241)"/><g id="jGroup_72" data-name="Group 72" transform="translate(14.391 16.41)"><path id="jPath_52" data-name="Path 52" class="jcls-3" d="M57.726 34.9l-6-6-15.459 15.4-4.667-4.607-6 6 10.6 10.73z" transform="translate(-23.833 -27.07)"/><path id="jPath_53" data-name="Path 53" class="jcls-1" d="M35.171 57.116L22.8 44.619l7.763-7.763 4.607 4.607L50.7 26l7.763 7.763zm-8.836-12.5l8.773 8.9 19.755-19.753L50.7 29.6 35.234 45.061l-4.607-4.607z" transform="translate(-22.8 -26)"/></g></svg></svg>