<svg xmlns="http://www.w3.org/2000/svg" viewBox="0 0 1368.168 559.401">
  <defs>
    <style>
      .cls-1 {
        fill: #f6f7f8;
        fill-rule: evenodd;
        opacity: 0.5;
      }
    </style>
  </defs>
  <path id="_1c--l" data-name="1c--l" class="cls-1" d="M253.594,0H74.944V74.391H179.258l.719,485.01h73.617V0ZM1255.8,433.9H600.662l-8.186-.277-8.02-.608-7.909-.94-7.8-1.383-7.633-1.77-7.467-2.157-7.356-2.489-7.135-2.71-6.969-3.208-6.8-3.484-6.582-3.761-6.361-4.093-6.195-4.369-5.863-4.646-5.752-4.923-5.476-5.254-5.2-5.42-4.923-5.752-4.646-5.974L470.02,364.6l-4.093-6.416-3.872-6.582-3.429-6.748-3.153-6.969-2.821-7.246-2.434-7.246-2.1-7.467L446.4,308.3l-1.438-7.8-1.051-7.965-.553-8.02-.221-8.13.166-8.075.553-8.02.83-7.854,1.328-7.8L447.675,237l2.047-7.522,2.434-7.412,2.765-7.246,3.042-7.08,3.374-6.8,3.706-6.692,4.093-6.527,4.314-6.305,4.535-6.029,4.923-5.807L488,163.993l5.42-5.365,5.752-5.033,5.863-4.812,6.14-4.48,6.36-4.259,6.582-3.872,6.858-3.6,6.969-3.208,7.246-2.931,7.3-2.6,7.522-2.1,7.688-1.77,7.854-1.493,8.02-1.051,8.186-.608,8.241-.221,8.02.221,7.909.608,7.854,1.106,7.688,1.438,7.633,1.881,7.522,2.268,7.3,2.6,7.246,2.987,7.08,3.374,6.8,3.706,6.692,3.982,6.527,4.425,6.305,4.646,6.029,5.033,5.808,5.254,5.642,5.586,5.365,5.807,5.033,6.139,4.812,6.361L731.8,190.6l4.259,6.914,3.872,7.08,3.6,7.3,3.318,7.522,2.931,7.688,2.6,7.909,2.212,8.02,1.825,8.241,1.383,8.462,1.106,8.573.608,8.628.166,8.85H685.728l-.055-4.923-.221-4.812-.5-4.812-.719-4.646-.774-4.646-1-4.48-1.217-4.425-1.327-4.314-1.493-4.259-1.715-4.093-1.825-3.927-2.046-3.872-2.213-3.761-2.378-3.54-2.489-3.484-2.6-3.319-2.821-3.153-2.987-2.987-3.153-2.765-3.208-2.655-3.374-2.434-3.6-2.268-3.706-2.1-3.761-1.881-3.982-1.715-4.093-1.493-4.259-1.272-4.314-1.051-4.535-.83-4.535-.608-4.812-.332-4.867-.166-4.867.166-4.7.332-4.646.608-4.48.83L578.1,193.75l-4.259,1.272-4.093,1.493-3.927,1.715-3.872,1.881-3.706,2.1-3.54,2.268-3.485,2.434-3.208,2.655-3.153,2.765-2.931,2.987-2.821,3.153-2.655,3.319-2.489,3.484-2.378,3.54-2.1,3.761-2.047,3.872-1.88,3.927-1.659,4.093-1.549,4.259-1.327,4.314-1.162,4.425-1.051,4.48-.774,4.646-.608,4.646-.5,4.812-.332,4.812-.055,4.923.166,3.927.332,3.872.608,3.816.774,3.706,1.106,3.706,1.161,3.485,1.493,3.54,1.659,3.374,1.825,3.319,1.991,3.208,2.212,3.153,2.378,2.987,2.489,2.931,2.6,2.765,2.821,2.71,2.931,2.489,2.987,2.489,3.153,2.268,3.263,2.212,3.374,2.046,3.429,1.881,3.54,1.715,3.6,1.659,3.706,1.438,3.706,1.327,3.872,1.106,3.872,1.051,3.872.774,3.927.608,3.927.442,3.982.221,3.927.111,766.9-.885v73.783Zm0,116.537H601.325l-13.883-.276-13.717-1.051-13.661-1.549-13.33-2.323-13.164-2.821-12.887-3.484-12.721-4.093-12.389-4.591-12.113-5.144-11.836-5.752-11.5-6.084-11.172-6.748-10.73-7.246-10.343-7.743-9.956-8.186-9.569-8.628-9.126-9.071-8.739-9.569-8.186-9.956-7.688-10.288-7.246-10.785-6.692-11.062-6.084-11.449L349,390.762,344.081,378.7l-4.314-12.445-3.761-12.777-3.153-12.942-2.434-13.385-1.715-13.5L327.6,299.889l-.387-13.993.387-14.1.94-13.883,1.715-13.827,2.268-13.661,2.876-13.5,3.54-13.274,4.148-13.053,4.7-12.887,5.254-12.5,5.808-12.223,6.416-11.947,6.914-11.615,7.467-11.228,7.909-10.841,8.407-10.509,8.96-10.066,9.347-9.569,9.845-9.181L434.4,59.4l10.675-8.186,11.062-7.633,11.449-7.08,11.947-6.527L491.7,24.115l12.666-5.254,12.942-4.7,13.274-3.982,13.606-3.319,13.827-2.6,14.215-1.991,14.436-1.106L601.325.774l14.768.332,14.436,1.106,14.1,1.825,13.883,2.544,13.551,3.153,13.385,3.816,12.942,4.48,12.555,5.088,12.334,5.642,11.836,6.305,11.56,6.858,11.062,7.356,10.73,7.909,10.288,8.462L788.6,74.5l9.4,9.4,8.96,9.9,8.463,10.343,7.909,10.73,7.522,11.173,6.914,11.56,6.416,12,5.918,12.279,5.254,12.666,4.812,12.942,4.093,13.274,3.595,13.606,2.931,13.827,2.268,14.049,1.715,14.38.94,14.546.387,14.768H802.486l-.387-10.177-.664-10.066-1.217-10.066-1.6-9.956-1.991-9.845-2.434-9.734-2.766-9.569-3.208-9.4-3.6-9.181-3.982-9.126-4.314-8.794-4.757-8.628-5.2-8.3-5.476-8.075-5.863-7.854-6.195-7.522-6.637-7.135-7.024-6.8-7.3-6.527-7.688-6.139L712.11,107.3l-8.573-5.531L694.8,96.9l-9.071-4.48-9.4-3.982-9.735-3.429L656.58,81.969l-10.454-2.434L635.4,77.544l-11.007-1.383L613,75.387l-11.67-.221-11.67.221-11.449.94-11.062,1.493-10.73,2.046-10.453,2.6-10.122,3.153-9.79,3.6-9.4,4.093-9.126,4.535-8.794,5.033-8.407,5.42-8.075,5.808-7.688,6.195-7.3,6.582-7.08,6.914-6.693,7.246-6.195,7.522-5.863,7.854L435.95,164.6l-5.033,8.407-4.812,8.573-4.314,8.794-3.927,9.015-3.54,9.181-3.153,9.347-2.655,9.4-2.323,9.569-1.881,9.679-1.493,9.734-1.106,9.79-.608,9.845-.221,9.9.332,8.9.719,8.85,1.272,8.85,1.659,8.739,2.1,8.794,2.6,8.628,3.042,8.573,3.429,8.407,3.872,8.241,4.314,8.131,4.7,7.965,5.033,7.8,5.476,7.522,5.807,7.412,6.195,7.08,6.527,6.8,6.8,6.582,7.245,6.25,7.522,5.918,7.743,5.7,8.075,5.254,8.407,4.867,8.684,4.535,8.96,4.093,9.181,3.761,9.4,3.208,9.734,2.821,9.9,2.378,10.122,1.825,10.343,1.327,10.509.885,10.675.221,766.9-.885v74.281ZM147.234,115.265H0V189.6H74.336V559.291h73.617l-.719-444.026Z"/>
</svg>
