<svg xmlns="http://www.w3.org/2000/svg" xmlns:xlink="http://www.w3.org/1999/xlink" viewBox="0 0 273.543 179.941">
  <defs>
    <style>
      .cls-1 {
        fill: #fff;
        fill-rule: evenodd;
      }

      .cls-2 {
        filter: url(#_1c);
      }
    </style>
    <filter id="_1c" x="0" y="0" width="273.543" height="179.941" filterUnits="userSpaceOnUse">
      <feOffset dx="2" dy="2" input="SourceAlpha"/>
      <feGaussianBlur stdDeviation="3" result="blur"/>
      <feFlood flood-opacity="0.2"/>
      <feComposite operator="in" in2="blur"/>
      <feComposite in="SourceGraphic"/>
    </filter>
  </defs>
  <g class="cls-2" transform="matrix(1, 0, 0, 1, 0, 0)">
    <path id="_1c-2" data-name="1c" class="cls-1" d="M73.413,0H21.7V21.536h30.2L52.1,161.941H73.413V0ZM173.886,125.611l-2.37-.08-2.322-.176-2.29-.272-2.258-.4-2.21-.512-2.162-.624-2.13-.721-2.065-.785-2.017-.929-1.969-1.009-1.905-1.089-1.841-1.185-1.793-1.265-1.7-1.345-1.665-1.425-1.585-1.521L140.1,110.7l-1.425-1.665-1.345-1.729-1.265-1.761-1.185-1.857-1.121-1.905-.993-1.953-.913-2.017-.817-2.1-.7-2.1-.608-2.162-.5-2.21-.416-2.258-.3-2.306-.16-2.322-.064-2.354.048-2.338.16-2.322.24-2.274.384-2.258.48-2.21.592-2.178.7-2.146.8-2.1.881-2.049.977-1.969,1.073-1.937,1.185-1.889,1.249-1.825,1.313-1.745,1.425-1.681,1.473-1.617,1.569-1.553,1.665-1.457,1.7-1.393,1.777-1.3,1.841-1.233,1.905-1.121,1.985-1.041,2.017-.929,2.1-.849,2.114-.753,2.178-.608,2.226-.512,2.274-.432,2.322-.3,2.37-.176,2.386-.064,2.322.064,2.29.176,2.274.32,2.226.416,2.21.544,2.178.656,2.113.753,2.1.865,2.049.977,1.969,1.073,1.937,1.153,1.889,1.281,1.825,1.345,1.745,1.457,1.681,1.521,1.633,1.617,1.553,1.681,1.457,1.777,1.393,1.841,1.313,1.905,1.233,2,1.121,2.049,1.041,2.114.961,2.178.849,2.226.753,2.29.64,2.322.528,2.386.4,2.45.32,2.482.176,2.5.048,2.562H198.511l-.016-1.425-.064-1.393-.144-1.393-.208-1.345-.224-1.345-.288-1.3-.352-1.281L196.83,72l-.432-1.233-.5-1.185-.528-1.137-.592-1.121-.64-1.089-.689-1.025-.721-1.009-.752-.961-.817-.913-.865-.865-.913-.8-.929-.769-.977-.7-1.041-.656-1.073-.608-1.089-.544-1.153-.5-1.185-.432-1.233-.368-1.249-.3-1.313-.24-1.313-.176-1.393-.1-1.409-.048-1.409.048-1.361.1-1.345.176-1.3.24-1.265.3-1.233.368-1.185.432-1.137.5-1.121.544-1.073.608-1.025.656-1.009.7-.929.769-.913.8-.849.865-.817.913-.769.961-.721,1.009-.688,1.025-.608,1.089-.592,1.121-.544,1.137-.48,1.185L151.213,72l-.384,1.249-.336,1.281-.3,1.3-.224,1.345-.176,1.345-.144,1.393-.1,1.393-.016,1.425.048,1.137.1,1.121.176,1.1.224,1.073.32,1.073.336,1.009.432,1.025.48.977.528.961.576.929.64.913.688.865.721.849.753.8.817.785.849.721.865.721.913.656.945.64.977.592.993.544,1.025.5,1.041.48,1.073.416,1.073.384,1.121.32,1.121.3,1.121.224,1.137.176,1.137.128,1.153.064,1.137.032h81.481v21.359Zm.192,33.736-4.019-.08-3.971-.3-3.955-.448-3.859-.672-3.811-.817-3.731-1.009-3.683-1.185-3.587-1.329-3.507-1.489-3.426-1.665-3.33-1.761-3.234-1.953-3.106-2.1-2.994-2.242-2.882-2.37-2.77-2.5-2.642-2.626-2.53-2.77-2.37-2.882-2.226-2.978-2.1-3.122-1.937-3.2-1.761-3.314-1.617-3.41-1.425-3.491-1.249-3.6-1.089-3.7-.913-3.747-.7-3.875-.5-3.907-.32-3.987-.112-4.051.112-4.083.272-4.019.5-4,.656-3.955.833-3.907,1.025-3.843,1.2-3.779,1.361-3.731,1.521-3.619,1.681-3.539,1.857-3.459,2-3.362,2.162-3.25,2.29-3.138,2.434-3.042,2.594-2.914,2.706-2.77,2.85-2.658,2.978-2.5,3.09-2.37,3.2-2.21,3.314-2.049,3.458-1.889,3.523-1.7,3.667-1.521L149.756,4.1,153.6,2.946l3.939-.961,4-.753,4.115-.576,4.179-.32,4.243-.112,4.275.1,4.179.32,4.083.528,4.019.737,3.923.913,3.875,1.1,3.747,1.3,3.635,1.473,3.571,1.633,3.426,1.825,3.346,1.985,3.2,2.13,3.106,2.29,2.978,2.45,2.85,2.562,2.722,2.722,2.594,2.866,2.45,2.994,2.29,3.106,2.178,3.234,2,3.346,1.857,3.475,1.713,3.555,1.521,3.667,1.393,3.747,1.185,3.843,1.041,3.939.849,4,.657,4.067.5,4.163.272,4.211.112,4.275H232.312l-.112-2.946-.192-2.914-.352-2.914-.464-2.882-.576-2.85-.7-2.818-.8-2.77-.929-2.722-1.041-2.658-1.153-2.642-1.249-2.546-1.377-2.5-1.505-2.4-1.585-2.338-1.7-2.274-1.793-2.178-1.921-2.065-2.033-1.969L210.712,34.5l-2.226-1.777-2.338-1.665-2.482-1.6-2.53-1.409-2.626-1.3L195.789,25.6l-2.818-.993-2.9-.881-3.026-.7-3.106-.576-3.186-.4-3.3-.224-3.378-.064-3.378.064-3.314.272-3.2.432-3.106.592-3.026.753-2.93.913-2.834,1.041-2.722,1.185-2.642,1.313-2.546,1.457-2.434,1.569L139.6,33.032l-2.226,1.793-2.114,1.905-2.049,2-1.937,2.1-1.793,2.178-1.7,2.274L126.2,47.65l-1.457,2.434-1.393,2.482L122.1,55.112l-1.137,2.61-1.025,2.658-.913,2.706-.769,2.722-.672,2.77-.544,2.8-.432,2.818-.32,2.834-.176,2.85-.064,2.866.1,2.578.208,2.562.368,2.562.48,2.53.608,2.546.753,2.5.881,2.482.993,2.434,1.121,2.386,1.249,2.354,1.361,2.306,1.457,2.258,1.585,2.178,1.681,2.146,1.793,2.049,1.889,1.969,1.969,1.905,2.1,1.809,2.178,1.713,2.242,1.649,2.338,1.521,2.434,1.409,2.514,1.313,2.594,1.185,2.658,1.089,2.722.929,2.818.817,2.866.689,2.93.528,2.994.384,3.042.256,3.09.064h81.481v21.5ZM42.623,33.368H0v21.52H21.52V161.909H42.831L42.623,33.368Z" transform="translate(7 7)"/>
  </g>
</svg>
