<svg id="8c89ec17-f322-4278-9d9b-8fad0106c084" data-name="Layer 1" xmlns="http://www.w3.org/2000/svg" viewBox="0 0 28.21674 27.99998">
  <title>check</title>
  <path d="M1384.26416,1617.40088a12.0044,12.0044,0,1,1-11.54929-7.8591,11.88881,11.88881,0,0,1,7.61911,2.5007h.00049c.11206.08667.20972.18628.31812.27625l1.25281-1.55676c-.11865-.098-.225-.20679-.34729-.30151h.00049a14.0376,14.0376,0,1,0,4.12842,5.17236Z" transform="translate(-1358.99757 -1607.53858)" style="fill: #f3f2f2"/>
  <path d="M1372.20361,1629.19678l-7.1102-7.74511a1.00012,1.00012,0,0,1,.06047-1.41317h0a1.00012,1.00012,0,0,1,1.413.06046l5.5371,6.03141,13.33155-16.56476a.99982.99982,0,0,1,1.40585-.152h0a.99982.99982,0,0,1,.15195,1.40566Z" transform="translate(-1358.99757 -1607.53858)" style="fill: #00c2d8"/>
</svg>
