<svg id="Group_52" data-name="Group 52" xmlns="http://www.w3.org/2000/svg" viewBox="0 0 64 57.031">
  <defs>
    <style>
      .cls-1 {
        fill: #282d33;
      }

      .cls-2 {
        fill: #00c2d8;
      }
    </style>
  </defs>
  <g id="Group_50" data-name="Group 50" transform="translate(19.755)">
    <path id="Path_37" data-name="Path 37" class="cls-1" d="M57.276,53.446H41.513a10.575,10.575,0,0,1-8.186-3.789H29.2V46.951h5.412l.406.541a7.948,7.948,0,0,0,6.427,3.247H60.929a2.909,2.909,0,1,0,0-5.818V42.216h3.383a2.909,2.909,0,0,0,0-5.818V33.691H65.6a2.909,2.909,0,1,0,0-5.818V25.167h2.3a2.909,2.909,0,0,0,0-5.818H55.923a1.151,1.151,0,0,0-.474.068H48.684l1.962-6.833V6.7a3.956,3.956,0,0,0-3.992-3.992h-.677V9.945l-2.436,3.383-7.848,8.524a7.846,7.846,0,0,0-2.03,3.653l-.271,1.015H29.2V23.814h2.165a10.456,10.456,0,0,1,2.368-3.856l7.712-8.389,1.759-2.5v-9L44.49,0h2.03a6.67,6.67,0,0,1,6.7,6.7v6.224L52.134,16.71h2.909a3.294,3.294,0,0,1,.812-.068H67.83A5.609,5.609,0,0,1,70.063,27.4a5.816,5.816,0,0,1,1.15,3.383,5.565,5.565,0,0,1-2.638,4.736,5.433,5.433,0,0,1,1.488,3.789,5.65,5.65,0,0,1-4.33,5.48,5.34,5.34,0,0,1,.879,3.044A5.6,5.6,0,0,1,61,53.446Z" transform="translate(-29.2)"/>
  </g>
  <rect id="Rectangle_55" data-name="Rectangle 55" class="cls-2" width="17.793" height="33.556" transform="translate(0 23.476)"/>
  <g id="Group_51" data-name="Group 51" transform="translate(11.704 51.214)">
    <rect id="Rectangle_56" data-name="Rectangle 56" width="2.233" height="2.03"/>
  </g>
</svg>
