<svg xmlns="http://www.w3.org/2000/svg" viewBox="0 0 64 60.097">
  <defs>
    <style>
      .cls-1 {
        fill: #fff;
      }

      .cls-2 {
        fill: #282d33;
      }

      .cls-3 {
        fill: #00c2d8;
      }

      .cls-4 {
        fill: none;
        stroke: #000;
        stroke-width: 2px;
      }
    </style>
  </defs>
  <g id="ft-4" transform="translate(0 1)">
    <g id="Group_76" data-name="Group 76" transform="translate(0 13.182)">
      <g id="Group_74" data-name="Group 74" transform="translate(5.286 4.521)">
        <path id="Path_54" data-name="Path 54" class="cls-1" d="M18.606,45.593,15.8,42.6V34.067c-.382-2.165-1.91-4.267-4.076-4.267H10.2l.191,15.411,2.1,3.566A10.406,10.406,0,0,0,18.606,45.593Z" transform="translate(-8.99 -28.526)"/>
        <path id="Path_55" data-name="Path 55" class="cls-2" d="M11.166,49.452,8.427,44.867l-.127-17L9.51,27.8H11.1c2.929,0,4.9,2.675,5.349,5.349v8.279l3.311,3.5-.892.828a12.272,12.272,0,0,1-6.814,3.566Zm-.191-5.286,1.465,2.484a9.363,9.363,0,0,0,3.63-1.847l-2.229-2.42V33.468c-.255-1.528-1.337-3.12-2.8-3.12h-.191Z" transform="translate(-8.3 -27.8)"/>
      </g>
      <g id="Group_75" data-name="Group 75">
        <path id="Path_56" data-name="Path 56" class="cls-1" d="M13.845,57.625,2.191,38.075,2,22.6H3.528c2.165,0,3.757,2.1,4.076,4.267v8.6l3.184,3.375,9.17,9.17.828-.828-5.668-5.668c-1.4-1.528-.955-4.267.573-5.668l.382-.318L26.2,45.653l.446,7.387V64.566Z" transform="translate(-0.726 -21.39)"/>
        <path id="Path_57" data-name="Path 57" class="cls-2" d="M27.192,63.812H24.645V52.35L24.2,45.472,15.347,36.62a4.019,4.019,0,0,0-.509,1.465,2.449,2.449,0,0,0,.446,1.847l6.559,6.559-2.611,2.675L9.17,39.04,5.6,35.283V26.3c-.255-1.528-1.337-3.12-2.8-3.12H2.547L2.675,37,14.137,56.3l-2.165,1.274L.191,37.7,0,20.764,1.21,20.7H2.8c2.929,0,4.9,2.675,5.349,5.349v8.215l2.866,2.993,1.274,1.274a3.1,3.1,0,0,1,.064-.764A5.983,5.983,0,0,1,14.137,34.2l.064-.064,1.274-1.083L26.746,44.326l.509,7.9v11.59Z" transform="translate(0 -20.7)"/>
      </g>
      <rect id="Rectangle_64" data-name="Rectangle 64" class="cls-3" width="20.378" height="7.132" transform="translate(9.68 38.782)"/>
    </g>
    <g id="Group_79" data-name="Group 79" transform="translate(33.942 13.182)">
      <g id="Group_77" data-name="Group 77" transform="translate(13.373 4.458)">
        <path id="Path_58" data-name="Path 58" class="cls-1" d="M77.1,45.593,79.9,42.6V34.067c.382-2.165,1.91-4.267,4.076-4.267h1.528l-.191,15.411-2.1,3.566A10.787,10.787,0,0,1,77.1,45.593Z" transform="translate(-75.317 -28.463)"/>
        <path id="Path_59" data-name="Path 59" class="cls-2" d="M82.833,49.415l-.828-.127a11.514,11.514,0,0,1-6.814-3.566L74.3,44.83l3.311-3.5V33.049c.446-2.675,2.42-5.349,5.349-5.349h1.592l1.146.127v1.21L85.572,44.83Zm-4.9-4.649a9.363,9.363,0,0,0,3.63,1.847l1.465-2.484.127-13.819h-.127c-1.465,0-2.547,1.592-2.8,3.12V42.41Z" transform="translate(-74.3 -27.7)"/>
      </g>
      <g id="Group_78" data-name="Group 78" transform="translate(2.866)">
        <path id="Path_60" data-name="Path 60" class="cls-1" d="M72.7,57.661l11.654-19.55L84.545,22.7H83.016c-2.165,0-3.757,2.1-4.076,4.267v8.6l-3.184,3.375-9.17,9.106-.828-.828,5.668-5.668c1.4-1.528.955-4.267-.573-5.668l-.382-.318L60.346,45.689,59.9,53.076V64.6Z" transform="translate(-58.563 -21.426)"/>
        <path id="Path_61" data-name="Path 61" class="cls-2" d="M60.347,63.812H57.8V52.222l.509-7.833L69.581,33.118l1.337,1.146A6.167,6.167,0,0,1,72.7,37.83c0,.255.064.509.064.764l1.274-1.274,2.8-2.993V26.049c.446-2.675,2.42-5.349,5.349-5.349h1.528l1.21.127.064,1.21L84.8,37.83,73.02,57.572,70.855,56.3,82.317,37l.127-13.819h-.191c-1.465,0-2.547,1.592-2.8,3.12v8.979L75.886,39.04,65.824,49.1l-2.611-2.675,6.623-6.559a2.375,2.375,0,0,0,.446-1.847,4.019,4.019,0,0,0-.509-1.465l-8.979,8.915-.446,6.878Z" transform="translate(-57.8 -20.7)"/>
      </g>
      <rect id="Rectangle_65" data-name="Rectangle 65" class="cls-3" width="20.378" height="7.132" transform="translate(0 38.782)"/>
    </g>
    <path id="Path_62" data-name="Path 62" class="cls-4" d="M42.982,26.364A13.182,13.182,0,1,1,56.164,13.182,13.168,13.168,0,0,1,42.982,26.364Z" transform="translate(-10.823)"/>
    <g id="Group_84" data-name="Group 84" transform="translate(27.638 3.885)">
      <g id="Group_80" data-name="Group 80" transform="translate(0.127 1.783)">
        <path id="Path_63" data-name="Path 63" class="cls-2" d="M49.14,18.325,45.447,16.86A3.367,3.367,0,0,1,43.6,13.995V12.466A3.56,3.56,0,0,1,47.166,8.9h1.847a3.56,3.56,0,0,1,3.566,3.566v.7H50.032v-.7a1.006,1.006,0,0,0-1.019-1.019H47.166a1.006,1.006,0,0,0-1.019,1.019v1.592c0,.064.127.318.573.637l3.311,1.274Z" transform="translate(-43.6 -8.9)"/>
      </g>
      <g id="Group_81" data-name="Group 81" transform="translate(0 7.705)">
        <path id="Path_64" data-name="Path 64" class="cls-2" d="M48.813,27.561H46.966A3.56,3.56,0,0,1,43.4,24v-.7h2.547V24a1.006,1.006,0,0,0,1.019,1.019h1.847A1.006,1.006,0,0,0,49.832,24V22.467c0-.064-.127-.318-.637-.7l-3.184-1.21L46.9,18.2l3.5,1.4a3.4,3.4,0,0,1,1.91,2.866V24A3.467,3.467,0,0,1,48.813,27.561Z" transform="translate(-43.4 -18.2)"/>
      </g>
      <g id="Group_82" data-name="Group 82" transform="translate(3.375)">
        <path id="Path_65" data-name="Path 65" class="cls-1" d="M50.7,6.1v0Z" transform="translate(-49.426 -6.1)"/>
        <rect id="Rectangle_66" data-name="Rectangle 66" class="cls-2" width="2.547" height="3.375"/>
      </g>
      <g id="Group_83" data-name="Group 83" transform="translate(3.375 15.22)">
        <path id="Path_66" data-name="Path 66" class="cls-1" d="M50.7,30v0Z" transform="translate(-49.426 -30)"/>
        <rect id="Rectangle_67" data-name="Rectangle 67" class="cls-2" width="2.547" height="3.375"/>
      </g>
    </g>
  </g>
</svg>
