<svg id="ft-6" xmlns="http://www.w3.org/2000/svg" viewBox="0 0 64 63.937">
  <defs>
    <style>
      .cls-1 {
        fill: #282d33;
      }

      .cls-2 {
        fill: #00c2d8;
      }

      .cls-3 {
        fill: #fff;
      }
    </style>
  </defs>
  <g id="Group_67" data-name="Group 67">
    <path id="Path_48" data-name="Path 48" class="cls-1" d="M32,63.937A31.968,31.968,0,1,1,64,32H61.475A29.475,29.475,0,1,0,32,61.475Z"/>
  </g>
  <g id="Group_71" data-name="Group 71" transform="translate(32 32)">
    <g id="Group_68" data-name="Group 68" transform="translate(29.412)">
      <path id="Path_49" data-name="Path 49" class="cls-1" d="M99.825,52.025,97.3,51.9V50.7h2.525Z" transform="translate(-97.3 -50.7)"/>
    </g>
    <g id="Group_69" data-name="Group 69" transform="translate(3.471 3.471)">
      <path id="Path_50" data-name="Path 50" class="cls-1" d="M56.516,84.476,56.2,81.951a14.227,14.227,0,0,0,2.272-.379l.5,2.462A24.683,24.683,0,0,1,56.516,84.476Zm4.923-1.01-.694-2.4c.757-.189,1.452-.442,2.209-.694l.884,2.4C63.017,82.961,62.259,83.277,61.439,83.466Zm4.671-1.7L65.1,79.427c.694-.316,1.389-.694,2.083-1.073l1.262,2.209C67.624,81,66.867,81.383,66.109,81.762ZM70.527,79.3l-1.389-2.083c.631-.442,1.262-.884,1.893-1.389l1.578,1.957C71.853,78.354,71.222,78.8,70.527,79.3Zm3.913-3.093-1.7-1.83a20.133,20.133,0,0,0,1.641-1.641l1.83,1.7Zm3.408-3.724-1.957-1.578a20.847,20.847,0,0,0,1.389-1.893L79.364,70.4Q78.606,71.537,77.849,72.484Zm2.777-4.1-2.209-1.262c.379-.694.757-1.389,1.073-2.083l2.272,1.073Zm2.083-4.544-2.4-.884A22.6,22.6,0,0,0,81,60.744l2.4.694A12.662,12.662,0,0,1,82.709,63.837Zm1.389-4.86-2.462-.5.379-2.272,2.525.316C84.35,57.336,84.224,58.157,84.1,58.977Z" transform="translate(-56.2 -56.2)"/>
    </g>
    <g id="Group_70" data-name="Group 70" transform="translate(0 29.412)">
      <path id="Path_51" data-name="Path 51" class="cls-1" d="M50.7,99.825V97.3h1.2l.126,2.525Z" transform="translate(-50.7 -97.3)"/>
    </g>
  </g>
  <circle id="Ellipse_4" data-name="Ellipse 4" class="cls-2" cx="21.901" cy="21.901" r="21.901" transform="matrix(1, -0.006, 0.006, 1, 9.957, 10.241)"/>
  <g id="Group_72" data-name="Group 72" transform="translate(14.391 16.41)">
    <path id="Path_52" data-name="Path 52" class="cls-3" d="M57.726,34.9l-6-6L36.267,44.3,31.6,39.693l-6,6,10.6,10.73Z" transform="translate(-23.833 -27.07)"/>
    <path id="Path_53" data-name="Path 53" class="cls-1" d="M35.171,57.116,22.8,44.619l7.763-7.763,4.607,4.607L50.7,26l7.763,7.763Zm-8.836-12.5,8.773,8.9L54.863,33.763,50.7,29.6,35.234,45.061l-4.607-4.607Z" transform="translate(-22.8 -26)"/>
  </g>
</svg>
